<svg width="18" height="18" viewBox="0 0 18 18" fill="none" xmlns="http://www.w3.org/2000/svg">
<g clip-path="url(#clip0_1934_3899)">
<path d="M3.88805 17.0998C3.36554 17.0025 2.92531 16.6963 2.73194 16.1894C2.5612 15.7467 2.6476 15.277 2.63525 14.8094C2.662 14.7287 2.81011 14.7639 2.89034 14.7494C3.54245 14.6232 4.12051 14.3419 4.55045 13.8246L4.1308 13.4625C3.73171 13.8598 3.2092 14.1763 2.63114 14.1887V13.3177C2.63114 13.235 2.47685 13.0487 2.39457 13.0487H0.993652L2.36165 8.8384C2.57148 7.17082 3.50748 5.65633 4.92897 4.77496C5.57491 4.37358 6.31342 4.12737 7.04577 3.94116L7.40988 4.32806L7.18771 4.94254C6.60142 5.02323 5.56462 4.65909 5.49057 5.53013C5.45354 5.96461 5.44942 6.83978 5.49057 7.2722C5.57902 8.15151 6.61171 7.6984 7.17331 7.85771C7.18977 7.99633 7.43251 8.39978 7.40371 8.49909C7.37285 8.61496 6.69399 9.1653 6.57674 9.3453C6.45948 9.5253 6.46977 9.77358 6.56439 9.95564C6.65079 10.1212 7.8316 11.3087 7.99617 11.3956C8.60302 11.7184 9.03297 10.8598 9.43822 10.5432L9.4876 10.5267L10.0801 10.7708C10.1479 11.2529 9.87434 12.2439 10.4874 12.4343C10.7507 12.517 12.0734 12.5067 12.3964 12.4736C13.2522 12.3867 12.9086 11.3522 12.9827 10.7687L13.5937 10.5205L13.7829 10.7025C13.3242 12.7984 12.9025 14.9294 12.9806 17.0936H3.88805V17.0998ZM3.64737 10.8556C4.21925 11.4536 5.05034 10.4439 4.40851 9.98047C3.84485 9.57496 3.1516 10.3343 3.64737 10.8556ZM12.6967 13.115L12.1331 13.0219L12.0364 13.6839L12.6001 13.746L12.6947 13.117L12.6967 13.115ZM11.8636 16.2453H12.3676L12.5095 14.315L11.9582 14.2508C11.8677 14.8136 11.8657 15.3784 11.8492 15.9453C11.8471 16.0219 11.769 16.2143 11.8636 16.2453Z" fill="white"/>
<path d="M8.27595 10.8971L7.07869 9.66404C7.24738 9.43645 8.04555 8.80956 8.07024 8.56956C8.08669 8.41025 7.89744 8.14335 7.83572 7.98611C7.76578 7.81025 7.65058 7.25783 7.42635 7.25783H6.05835V5.56542L6.10566 5.51783H7.49012C7.61149 5.51783 7.82338 4.83714 7.87892 4.70473C7.95915 4.50611 8.17926 4.28266 8.01058 4.07783L7.08075 3.1137L8.28212 1.9137C8.51046 2.02128 9.14406 2.85714 9.31686 2.89232C9.55961 2.9399 9.77972 2.74335 9.99366 2.65645C10.1829 2.5799 10.6849 2.49921 10.6849 2.24473V0.899902H12.4149V2.30887C12.4149 2.48887 12.9374 2.60059 13.0753 2.65645C13.283 2.74128 13.5155 2.93576 13.75 2.89232C13.9619 2.85301 14.5585 2.08542 14.7745 1.92611H14.8362L15.9985 3.10335C15.7845 3.44059 15.3093 3.73232 15.0871 4.04887C14.8855 4.33645 15.1447 4.58059 15.2599 4.85576C15.3463 5.06266 15.3834 5.47645 15.6405 5.51783C16.0417 5.58197 16.5889 5.47438 17.0065 5.51783V7.25783C16.595 7.29507 16.1013 7.20818 15.7002 7.25783C15.3669 7.29714 15.3669 7.66542 15.2599 7.92197C15.1982 8.07301 14.9802 8.45783 15.0049 8.58818C15.046 8.80128 16.0149 9.57301 15.9964 9.67439L14.7868 10.8971C14.721 10.8971 14.0092 10.0758 13.859 9.96404C13.5978 9.76749 13.355 10.0199 13.102 10.1234C12.9724 10.1751 12.4108 10.3178 12.4108 10.473V11.882H10.6807V10.5682C10.6807 10.5682 10.6149 10.413 10.6005 10.3944C10.5306 10.3013 10.0821 10.1751 9.93401 10.1151M11.337 3.21921C9.01652 3.37232 7.64852 5.90059 8.77789 7.95714C9.97926 10.142 13.1946 10.0944 14.3363 7.88266C15.4718 5.68335 13.7932 3.05783 11.3349 3.21921H11.337Z" fill="white"/>
<path d="M12.5609 5.37087C11.232 4.03432 9.18928 6.05776 10.5141 7.41294C11.8389 8.76811 13.896 6.71363 12.5609 5.37087Z" fill="white"/>
<path d="M12.5609 5.37089C13.896 6.71365 11.843 8.77227 10.514 7.41296C9.18513 6.05365 11.232 4.03434 12.5609 5.37089Z" fill="white"/>
</g>
<defs>
<clipPath id="clip0_1934_3899">
<rect width="18" height="18" fill="white"/>
</clipPath>
</defs>
</svg>
