<svg width="17" height="21" viewBox="0 0 17 21" fill="none" xmlns="http://www.w3.org/2000/svg">
<g clip-path="url(#clip0_1934_3892)">
<path d="M10.9095 3C11.4659 3.12174 11.9642 3.42418 12.222 3.9444C12.2616 4.02401 12.3943 4.369 12.3943 4.43472V5.30161H16.5485C16.7397 5.30161 17.0089 5.61753 17.038 5.80625V5.96379C16.9954 6.17525 16.7448 6.46842 16.5165 6.46842H15.8055L14.7279 18.5885C14.6862 18.9045 14.4478 19.1559 14.1167 19.145H4.89007C4.56109 19.1403 4.33657 18.8737 4.30709 18.5599L3.23252 6.46842H2.52148C2.2936 6.46842 2.04254 6.17525 2 5.96379V5.80625C2.02906 5.61796 2.29865 5.30161 2.48947 5.30161H6.64366V4.43472C6.64366 3.98021 7.26245 3.25948 7.70643 3.13058L8.1285 3H10.9086H10.9095ZM11.257 5.30161V4.62385C11.257 4.46504 10.9722 4.17102 10.7962 4.16934C9.99708 4.21188 9.12345 4.10321 8.33322 4.16513C8.14282 4.18029 7.99034 4.24306 7.88166 4.40818C7.86355 4.43556 7.78183 4.60995 7.78183 4.62385V5.30161H11.257ZM14.669 6.46842H4.36985L5.4124 17.9773H13.6264L14.669 6.46842Z" fill="white"/>
<path d="M12.3561 7.6105C12.7217 7.57385 13.0026 7.8982 12.9955 8.24867C12.9942 8.30006 12.9656 8.3544 12.9631 8.40831C12.8518 11.0162 12.5473 13.6164 12.4218 16.2238C12.3089 17.1855 11.0806 16.9513 11.2571 16.0073L11.8278 8.12693C11.8691 7.86703 12.089 7.63746 12.3556 7.61092L12.3561 7.6105Z" fill="white"/>
<path d="M6.57463 7.6103C6.88508 7.57913 7.16351 7.82934 7.21027 8.12631L7.78104 16.0067C7.9529 16.949 6.73049 17.1857 6.61633 16.2232C6.49038 13.6158 6.18625 11.0155 6.07505 8.40769C6.07294 8.35377 6.04388 8.29985 6.04261 8.24804C6.0363 7.93675 6.25407 7.64189 6.57421 7.60988L6.57463 7.6103Z" fill="white"/>
<path d="M9.48095 7.6097C9.79266 7.58569 10.0804 7.84391 10.0892 8.15394V16.3541C9.96873 16.9438 9.20125 17.0179 8.97505 16.4547L8.9502 8.12361C8.98137 7.84728 9.20167 7.63119 9.48053 7.6097H9.48095Z" fill="white"/>
</g>
<defs>
<clipPath id="clip0_1934_3892">
<rect width="17" height="21" fill="white"/>
</clipPath>
</defs>
</svg>
