<svg width="18" height="18" viewBox="0 0 18 18" fill="none" xmlns="http://www.w3.org/2000/svg">
<path d="M3.02199 1.59698C3.68515 1.49544 6.28567 1.48621 6.9441 1.58313C7.84883 1.71698 7.77304 3.02313 6.92988 3.18929C5.95883 3.38313 4.49041 3.06929 3.46252 3.21236C3.00304 3.27698 2.73304 3.60929 2.73304 4.05236C2.64778 7.70775 2.78041 11.7693 2.73304 14.1831C2.72357 14.7185 3.0362 15.0093 3.60462 15.0324L14.272 14.9954C14.5041 14.8754 14.7504 14.6585 14.793 14.3954C14.9636 13.3477 14.6367 11.9816 14.8499 10.9016C15.1862 10.117 16.2662 10.0524 16.5409 10.9293C16.3799 13.0154 17.3746 16.117 14.4615 16.6524H3.22567C2.09831 16.5277 1.24567 15.7016 1.06567 14.6216V3.6139C1.16988 2.68159 2.06041 1.74467 3.01725 1.59698H3.02199Z" fill="white"/>
<path d="M11.3873 8.38157C9.72469 8.3308 7.67837 8.50619 6.34258 9.56773C6.08679 9.7708 5.36679 10.7031 5.26258 10.7308C4.18732 11.0447 4.54732 9.51234 4.67048 8.97234C5.37627 5.84773 8.17574 3.98311 11.3873 3.94619C11.4631 3.87696 11.3115 2.2385 11.4015 1.92926C11.4821 1.66619 11.9415 1.44465 12.1878 1.65234C13.2678 2.78773 14.4805 3.80773 15.5605 4.94311C15.7926 5.18773 16.5505 5.93542 16.5505 6.20311C16.5505 6.36926 16.4747 6.4985 16.3563 6.60926L12.2636 10.6754C12.0315 10.8693 11.3873 10.7216 11.3873 10.4123V8.38157ZM12.221 3.7985V4.86927C12.221 5.22465 11.1978 5.10465 10.9705 5.12773C9.0189 5.32157 7.11469 6.35542 6.45627 8.22926C6.95837 8.02619 7.43679 7.75388 7.95784 7.58773C8.99521 7.25542 10.7336 7.03388 11.7994 7.20003C11.9084 7.2185 12.221 7.3708 12.221 7.45388V8.5985L14.7221 6.19388L12.221 3.78926V3.7985Z" fill="white"/>
</svg>
