<svg width="2469" height="789" viewBox="0 0 2469 789" fill="none" xmlns="http://www.w3.org/2000/svg">
<path d="M2240.56 524.301C2114.1 524.301 2011.36 405.794 2012.3 260.527C2013.25 118.191 2114.6 1.91427 2238.78 0.83114C2365.47 -0.251988 2468.82 117.554 2468.82 262.566C2468.82 292.83 2447.43 317.359 2421.03 317.359H2116.76C2135.99 374.256 2184.22 414.714 2240.56 414.714C2265.73 414.714 2289.62 406.813 2310.35 392.095C2328.46 379.162 2352.02 382.347 2367.64 399.04C2390.42 423.57 2386.97 466.449 2360.41 485.244C2324.68 510.475 2283.12 524.301 2240.62 524.301H2240.56ZM2116.76 207.836H2364.36C2345.13 150.94 2296.9 110.482 2240.56 110.482C2184.22 110.482 2135.99 150.94 2116.76 207.836Z" fill="#315CA0"/>
<path d="M1210.01 523.47C1084.15 523.47 981.749 406.046 981.749 261.735C981.749 117.424 1084.15 0 1210.01 0C1335.86 0 1438.27 117.424 1438.27 261.735C1438.27 406.046 1335.86 523.47 1210.01 523.47ZM1210.01 109.587C1136.83 109.587 1077.32 177.824 1077.32 261.735C1077.32 345.645 1136.83 413.882 1210.01 413.882C1283.19 413.882 1342.7 345.645 1342.7 261.735C1342.7 177.824 1283.19 109.587 1210.01 109.587Z" fill="#315CA0"/>
<path d="M1390.48 526.083C1364.08 526.083 1342.69 501.553 1342.69 471.29V261.736H1438.26V471.29C1438.26 501.553 1416.87 526.083 1390.48 526.083Z" fill="#315CA0"/>
<path d="M1733.24 523.47C1607.39 523.47 1504.98 406.046 1504.98 261.735C1504.98 117.424 1607.39 0 1733.24 0C1859.1 0 1961.5 117.424 1961.5 261.735C1961.5 406.046 1859.1 523.47 1733.24 523.47ZM1733.24 109.587C1660.06 109.587 1600.55 177.824 1600.55 261.735C1600.55 345.645 1660.06 413.882 1733.24 413.882C1806.42 413.882 1865.93 345.645 1865.93 261.735C1865.93 177.824 1806.42 109.587 1733.24 109.587Z" fill="#315CA0"/>
<path d="M1552.77 788.646C1526.38 788.646 1504.98 764.116 1504.98 733.853V261.736H1600.55V733.853C1600.55 764.116 1579.16 788.646 1552.77 788.646Z" fill="#315CA0"/>
<path d="M867.287 523.852C840.894 523.852 819.501 499.323 819.501 469.059C819.501 413.055 779.773 367.563 730.987 367.563C682.202 367.563 642.473 413.118 642.473 469.059C642.473 499.323 621.081 523.852 594.688 523.852C568.295 523.852 546.902 499.323 546.902 469.059C546.902 352.654 629.471 257.976 730.987 257.976C832.503 257.976 915.072 352.654 915.072 469.059C915.072 499.323 893.68 523.852 867.287 523.852Z" fill="#315CA0"/>
<path d="M730.989 0.89209C675.703 0.89209 630.751 52.4363 630.751 115.831C630.751 179.226 675.703 230.77 730.989 230.77C786.276 230.77 831.227 179.226 831.227 115.831C831.227 52.4363 786.22 0.89209 730.989 0.89209Z" fill="#315CA0"/>
<path d="M594.069 524.552C567.676 524.552 546.284 500.023 546.284 469.759C546.284 413.755 506.555 368.263 457.769 368.263C408.984 368.263 369.255 413.818 369.255 469.759C369.255 500.023 347.863 524.552 321.47 524.552C295.077 524.552 273.685 500.023 273.685 469.759C273.685 353.354 356.253 258.676 457.769 258.676C559.286 258.676 641.854 353.354 641.854 469.759C641.854 500.023 620.462 524.552 594.069 524.552Z" fill="#315CA0"/>
<path d="M457.771 0.89209C402.485 0.89209 357.533 52.4363 357.533 115.831C357.533 179.226 402.485 230.77 457.771 230.77C513.058 230.77 558.01 179.226 558.01 115.831C558.01 52.4363 513.058 0.89209 457.771 0.89209Z" fill="#315CA0"/>
<path d="M320.915 525.194C294.522 525.194 273.13 500.664 273.13 470.4C273.13 414.396 233.401 368.904 184.615 368.904C135.83 368.904 96.1013 414.46 96.1013 470.4C96.1013 500.664 74.709 525.194 48.3159 525.194C21.9228 525.194 0.530518 500.664 0.530518 470.4C0.530518 353.996 83.0992 259.317 184.615 259.317C286.132 259.317 368.7 353.996 368.7 470.4C368.7 500.664 347.308 525.194 320.915 525.194Z" fill="#315CA0"/>
<path d="M184.616 0.89209C129.33 0.89209 84.3782 52.4363 84.3782 115.767C84.3782 179.099 129.33 230.706 184.616 230.706C239.903 230.706 284.855 179.162 284.855 115.767C284.855 52.3726 239.847 0.89209 184.616 0.89209Z" fill="#315CA0"/>
</svg>
