<svg width="12" height="16" viewBox="0 0 12 16" fill="none" xmlns="http://www.w3.org/2000/svg">
<path d="M11.1036 15.2208C10.206 15.5789 8.59817 16 6.00003 16C3.4019 16 1.79402 15.5789 0.896456 15.2208C0.299754 14.9827 -0.0616519 14.3878 0.00870887 13.7626C0.126415 12.7175 0.466076 11.6771 1.24233 11.2058C2.67277 10.3375 4.0927 9.9675 4.0927 9.9675C4.14273 9.81562 4.19895 9.31316 4.22839 8.79871C4.04723 8.61515 3.86768 8.4236 3.67833 8.24208C3.31785 7.8965 3.27729 7.40257 3.14861 6.76544C2.91214 6.83101 2.83735 6.7212 2.77457 6.62782C2.73179 6.56398 2.71495 6.48747 2.69894 6.41278C2.64131 6.14428 2.5838 5.87577 2.52629 5.60726C2.48305 5.40557 2.43956 5.19897 2.4689 4.99488C2.48292 4.89842 2.5181 4.79729 2.59934 4.74052C2.68057 4.68385 2.81628 4.69753 2.85696 4.78657C2.85696 4.78657 2.72523 3.52281 2.72523 3.62919C2.61523 3.51005 2.52815 3.25055 2.56463 3.04998C2.60098 2.84955 2.66632 2.65446 2.69892 2.45345C2.73457 2.23271 2.73083 2.00491 2.79582 1.79056C2.88747 1.48842 3.1065 1.24077 3.3294 1.01286C3.48732 0.851407 3.65061 0.694519 3.82874 0.554632C4.18548 0.274942 4.61071 0.0644778 5.06562 0.0147595C5.21161 -0.00108554 5.35889 -0.000409693 5.50569 0.000280447C5.67038 0.00108326 5.83518 0.00187261 5.99999 0.00267543C6.16479 0.00187261 6.3296 0.00108326 6.49429 0.000280447C6.64109 -0.000409693 6.78837 -0.00108554 6.93436 0.0147595C7.38927 0.0644778 7.81451 0.274942 8.17124 0.554632C8.34937 0.694533 8.51266 0.851421 8.67058 1.01286C8.89349 1.24077 9.11253 1.48842 9.20416 1.79056C9.26915 2.00491 9.26541 2.23271 9.30106 2.45345C9.33367 2.65446 9.39901 2.84955 9.43535 3.04998C9.47183 3.25053 9.38474 3.51004 9.27475 3.62919C9.27475 3.52281 9.14302 4.78657 9.14302 4.78657C9.1837 4.69753 9.31941 4.68384 9.40064 4.74052C9.48187 4.79729 9.51706 4.89843 9.53108 4.99488C9.56042 5.19897 9.51695 5.40557 9.47369 5.60726C9.41618 5.87577 9.35867 6.14428 9.30104 6.41278C9.28503 6.48746 9.26819 6.56396 9.22541 6.62782C9.16265 6.7212 9.08784 6.83101 8.85137 6.76544C8.72268 7.40257 8.68212 7.89648 8.32165 8.24208C8.1323 8.42358 7.95277 8.61513 7.77159 8.79871C7.80104 9.31316 7.85727 9.81562 7.90728 9.9675C7.90728 9.9675 9.32721 10.3375 10.7577 11.2058C11.5339 11.6771 11.8736 12.7175 11.9913 13.7626C12.0617 14.3878 11.7003 14.9827 11.1036 15.2208Z" fill="white"/>
</svg>
