<svg width="77" height="76" viewBox="0 0 77 76" fill="none" xmlns="http://www.w3.org/2000/svg">
<path d="M40.1905 74.4517C39.7247 74.5136 38.5904 74.5136 38.1246 74.4517C36.3273 74.2115 34.1732 72.7102 33.2736 71.1377C32.9825 70.6273 32.7215 69.4488 32.3797 69.2161C23.3688 67.1932 15.3007 61.2446 10.9812 53.076C10.6544 52.4586 9.64778 50.522 9.57454 49.9665C9.52947 49.6288 9.64027 49.7432 9.81117 49.6456C10.1567 49.4467 13.2292 48.1951 13.4414 48.2007L13.802 48.3846C17.0285 56.465 24.2834 62.6107 32.7741 64.5191C33.5084 63.9787 33.8784 63.1098 34.6465 62.4455C39.2458 58.4729 46.4219 62.1059 46.0087 68.1671C45.804 71.1583 43.1879 74.0501 40.1905 74.4517ZM38.258 65.4893C36.2992 65.934 36.2917 69.43 38.6824 69.8748C42.0404 70.4997 42.4085 64.5473 38.258 65.4893Z" fill="white"/>
<path d="M27.8889 51.7608C27.703 51.6426 27.6466 51.5018 27.6072 51.2917C27.4588 50.4829 27.5508 48.2723 27.6072 47.3547C27.857 43.3652 29.3387 40.0831 32.6723 37.7881C27.6748 32.7739 29.9961 23.9467 36.988 22.4042C46.136 20.385 51.7551 31.2671 45.4449 37.88C47.4563 39.0022 49.2179 41.4323 49.8996 43.656C50.078 44.2396 50.5156 45.9041 50.5156 46.4164V51.7608H27.8851H27.8889ZM38.9994 26.7033C33.8592 26.7765 32.8582 34.11 37.7054 35.5794C44.4589 37.6267 45.8862 26.6057 38.9994 26.7033ZM45.8242 47.259C45.7172 38.1221 32.4582 38.1033 32.3023 47.259H45.8242Z" fill="white"/>
<path d="M70.2806 44.6749C68.2842 53.5697 62.4904 61.5487 54.4674 65.923C53.9209 66.2213 51.0907 67.7151 50.6982 67.4336L49.2183 63.4046C57.322 60.1432 63.8351 52.8416 65.5254 44.1963C60.5391 41.5898 60.6668 33.926 65.9216 31.7886C74.9419 28.12 79.7422 41.9539 70.2825 44.6749H70.2806ZM68.1227 35.8626C65.3995 36.4218 66.0719 41.0175 69.3134 40.2387C71.9671 39.6026 71.1351 35.2434 68.1227 35.8626Z" fill="white"/>
<path d="M29.1098 12.7491C20.9028 15.761 14.4216 23.2353 12.5736 31.7829C12.6487 32.2764 13.4263 32.4885 13.8 32.8225C20.2962 38.6529 12.8835 48.2271 5.76194 43.8491C0.584159 40.6665 2.20304 32.8525 7.90479 31.3813C9.89928 22.2895 15.9973 14.1809 24.2889 9.90617C24.8035 9.6397 26.5707 8.71832 26.9933 8.65264C27.2149 8.61886 27.382 8.58509 27.5116 8.81402L29.1098 12.7491ZM8.96401 35.8625C6.50752 36.3654 6.72538 40.1898 9.30394 40.3287C12.7896 40.5163 12.337 35.1701 8.96401 35.8625Z" fill="white"/>
<path d="M45.6782 6.89431C54.9783 8.91535 64.2146 15.8342 67.9575 24.6858C68.1153 25.0574 68.6862 26.1476 68.4684 26.4498L64.4343 27.9266C61.2097 19.8481 53.8346 13.2539 45.1993 11.6476C42.7015 15.9693 36.7744 16.688 33.6193 12.6515C31.1327 9.46893 32.1187 4.45293 35.6926 2.54073C39.7492 0.369573 44.5495 2.54261 45.6764 6.89244L45.6782 6.89431ZM38.9999 6.25254C36.0382 6.33698 36.1659 10.8951 39.1295 10.8107C42.1175 10.7262 41.9879 6.16621 38.9999 6.25254Z" fill="white"/>
</svg>
