<svg width="20" height="18" viewBox="0 0 20 18" fill="none" xmlns="http://www.w3.org/2000/svg">
<path d="M15.0659 3.21223V1.0278C15.0659 0.973431 14.912 0.839453 14.8449 0.82392C14.7087 0.794794 14.1502 0.798677 13.9943 0.814211C13.8957 0.82392 13.6845 0.942364 13.6845 1.02586V3.21028H12.9603V1.52682C12.8596 1.53847 12.7392 1.61031 12.6544 1.66274C12.0604 2.0239 11.5907 2.72874 11.4624 3.40251C11.4309 3.56756 11.4368 4.01804 11.348 4.09765C11.3144 4.12871 11.2533 4.13648 11.2197 4.16561C11.0599 4.30541 10.9572 4.41997 10.904 4.63162C10.8842 4.71317 10.8388 4.9054 10.904 4.95588H17.8958C17.8681 4.55783 17.7359 4.26075 17.3748 4.05881C17.3353 3.75591 17.3215 3.45494 17.2347 3.1598C17.0235 2.43166 16.4789 1.81613 15.7882 1.48993V3.2064H15.0639L15.0659 3.21223ZM17.1715 5.63937H11.5789C11.567 7.64516 13.6608 8.98106 15.5375 8.15971C16.5104 7.73448 17.2169 6.70148 17.1715 5.63937Z" fill="white"/>
<path d="M19.9999 12.4044V13.9267H8.74951V12.5015C8.92712 10.5326 12.3036 9.85104 13.8962 9.78114C15.5736 9.70736 19.7552 10.2705 19.9999 12.4044Z" fill="white"/>
<path d="M15.0663 3.21197H15.7906V1.4955C16.4813 1.81976 17.024 2.43723 17.2371 3.16537C17.3219 3.46051 17.3377 3.76148 17.3772 4.06438C17.7383 4.26438 17.8686 4.56146 17.8982 4.96145H10.9044C10.8373 4.91097 10.8827 4.7168 10.9044 4.63719C10.9577 4.42554 11.0603 4.31098 11.2201 4.17118C11.2537 4.14205 11.3149 4.13234 11.3484 4.10322C11.4372 4.02361 11.4313 3.57313 11.4629 3.40808C11.5911 2.73237 12.0608 2.02947 12.6548 1.66831C12.7397 1.61588 12.862 1.54404 12.9607 1.53239V3.21585H13.6849V1.03143C13.6849 0.945992 13.8961 0.829489 13.9948 0.819781C14.1507 0.804247 14.7091 0.798422 14.8453 0.829489C14.9124 0.845023 15.0663 0.977059 15.0663 1.03337V3.2178V3.21197Z" fill="white"/>
<path d="M17.1723 5.63916C17.2177 6.70128 16.5112 7.73427 15.5383 8.1595C13.6596 8.98085 11.5678 7.64495 11.5796 5.63916H17.1723Z" fill="white"/>
<path d="M0.419078 17.3412C0.217561 17.2697 0.0439916 17.1459 0.0101603 16.9164C0.0454626 15.8132 -0.204595 14.8039 0.604415 13.9228C1.10894 13.3727 1.77233 13.1968 2.47691 13.0552L3.5551 13.9556C3.53744 14.0182 3.4992 14.0689 3.48008 14.133C3.44919 14.2344 3.35652 14.5967 3.36093 14.6846C3.36829 14.8277 3.49185 14.9545 3.63305 14.953L3.24473 17.3427H0.419078V17.3412Z" fill="white"/>
<path d="M7.45471 17.3412H4.64818L4.23926 14.9515C4.5202 14.9068 4.52609 14.7368 4.48196 14.4968C4.44813 14.3179 4.39665 14.1181 4.31722 13.9556L5.39688 13.0552C6.12793 13.2057 6.80456 13.3891 7.30761 13.9825C8.05337 14.8605 7.80479 15.8475 7.84303 16.9164C7.81802 17.14 7.65181 17.2712 7.45323 17.3412H7.45471Z" fill="white"/>
<path d="M4.03894 7.22916C4.60819 7.1904 5.02152 7.43191 5.39807 7.83592C5.44514 7.8866 5.50398 7.99692 5.55252 8.03419C5.62901 8.09084 5.75845 8.12662 5.85406 8.20265C6.27769 8.54107 6.39683 9.05838 6.363 9.58463C6.35565 9.70538 6.27328 9.99758 6.28357 10.0766C6.28946 10.1243 6.36742 10.1735 6.3983 10.2197C6.61012 10.5387 6.50568 11.2469 6.18208 11.4765C6.11442 11.5242 5.97468 11.5614 5.94379 11.5913C5.91584 11.6181 5.80552 11.8969 5.76875 11.9669C4.88178 13.6023 3.2211 13.7619 2.22381 12.1235C2.15909 12.0176 2.012 11.6598 1.96787 11.6121C1.9311 11.5734 1.76047 11.5346 1.68692 11.4809C1.29566 11.1992 1.21034 10.257 1.70163 10.017C1.72076 9.42213 1.82813 8.80345 2.19292 8.32192C2.60184 7.78076 3.3579 7.27686 4.04041 7.23065L4.03894 7.22916ZM2.13409 9.85148C2.12967 10.1094 2.10614 10.3509 2.13703 10.6103C2.22823 11.3855 2.72687 12.4186 3.46675 12.7407C4.68026 13.2699 5.61871 11.721 5.75698 10.6893C5.80111 10.3643 5.78493 10.2287 5.67608 9.92602C5.52899 9.51307 5.29217 9.13441 4.99798 8.81239L4.97298 8.80643C4.83471 8.90184 4.73027 9.03452 4.59789 9.13888C3.90361 9.69048 3.00488 9.89174 2.13262 9.84999L2.13409 9.85148Z" fill="white"/>
</svg>
