<svg width="18" height="18" viewBox="0 0 18 18" fill="none" xmlns="http://www.w3.org/2000/svg">
<path d="M6.72369 15.13L5.53976 14.6881L4.31118 15.5118C4.01304 15.6671 3.67313 15.6069 3.41099 15.4111C3.09413 15.1748 2.02398 14.1384 1.78777 13.8321C1.22029 13.0965 2.18962 12.4322 2.52953 11.8336C2.55257 11.7986 2.54825 11.7651 2.54249 11.7273C2.52665 11.635 2.3106 11.263 2.25443 11.1301C2.18674 10.9707 2.13345 10.8015 2.09024 10.635C2.03262 10.5777 0.773799 10.4462 0.549112 10.3693C0.262491 10.2728 0.0493265 9.96092 0.0219607 9.67281C-0.0457335 8.95395 0.0680504 8.1274 0.0320429 7.39735C0.230805 6.55681 1.2635 6.74702 1.9318 6.55681C2.17953 6.48549 2.15793 6.24913 2.25443 6.03095C2.35093 5.81278 2.47336 5.60439 2.54825 5.37782C2.22995 4.73868 1.19005 4.07156 1.80506 3.31075C2.03694 3.02404 3.16326 1.91218 3.44988 1.71918C4.23629 1.18633 4.8513 2.15413 5.46775 2.44224C5.5124 2.46322 5.54696 2.48699 5.60026 2.46741L6.71361 2.00169C6.97142 1.34856 6.71793 0.109434 7.71606 0.0213243C8.45638 -0.0444082 9.30759 0.0660783 10.0594 0.0311142C10.9971 0.253486 10.6802 1.35975 10.9855 2.01847L12.1392 2.47301C12.8119 2.15553 13.4888 1.13598 14.2853 1.76673C14.6238 2.03526 15.6665 3.02404 15.9056 3.34851C16.44 4.07017 15.4822 4.74287 15.148 5.32747L15.1351 5.43377L15.6334 6.53024C16.3075 6.74981 17.5692 6.53443 17.6542 7.48826C17.719 8.21131 17.6109 9.03087 17.6441 9.76372C17.4367 10.6112 16.3708 10.4168 15.7083 10.6029C15.5268 10.6532 15.4951 10.9679 15.4231 11.1315C15.3266 11.3497 15.2042 11.5581 15.1293 11.7846C15.449 12.4336 16.4846 13.0811 15.8739 13.8517C15.6896 14.0839 14.3775 15.3594 14.1629 15.4796C13.388 15.9118 12.8219 15.0055 12.2112 14.7202C12.158 14.6951 12.145 14.6839 12.0787 14.6951C11.9866 14.7104 11.5962 14.9202 11.4637 14.9748C11.3471 15.0237 11 15.1006 10.9495 15.1804C10.7292 15.8167 10.9337 17.0376 9.99606 17.1411C9.49195 17.1971 8.18704 17.1943 7.68005 17.1411C6.73809 17.0418 6.93686 15.7747 6.72369 15.1328V15.13ZM12.5857 5.24216C10.2582 2.7681 6.09716 3.22403 4.40768 6.14004C2.17377 9.99448 5.84655 14.5118 10.2279 13.3356C13.8662 12.3595 15.1351 7.95118 12.5857 5.24216Z" fill="white"/>
<path d="M7.17159 9.02519C8.887 9.17064 11.1497 8.41962 12.2055 10.1594C12.2919 10.3021 12.4993 10.7161 12.4532 10.8629C12.4301 10.9342 12.0773 11.3524 12.0009 11.4335C10.3071 13.2041 7.36748 13.2041 5.67368 11.4335C5.58582 11.3426 5.21422 10.8993 5.20846 10.8098C5.20126 10.7035 5.3813 10.3119 5.44323 10.2014C5.79322 9.58462 6.45864 9.14967 7.17015 9.02519H7.17159Z" fill="white"/>
<path d="M8.51795 4.55968C11.4331 4.20305 11.7903 8.37776 9.09263 8.64209C6.24947 8.9204 5.91676 4.87716 8.51795 4.55968Z" fill="white"/>
</svg>
